<?xml version="1.0" encoding="UTF-8"?><!DOCTYPE svg PUBLIC "-//W3C//DTD SVG 1.1//EN" "http://www.w3.org/Graphics/SVG/1.1/DTD/svg11.dtd"><svg xmlns="http://www.w3.org/2000/svg" xmlns:xlink="http://www.w3.org/1999/xlink"><defs>
    <clipPath id="clip0">
      <rect width="17.0398" height="19.2" fill="white" transform="translate(0.0795898 0.919922)"/>
    </clipPath>
  
    <clipPath id="clip0">
      <rect width="16.858" height="16.125" fill="white" transform="translate(0.329559 0.0625)"/>
    </clipPath>
  </defs><symbol id="bicycle" viewBox="0 0 25 24">
  <path d="M18.3075 21C17.4664 21 16.6442 20.7471 15.9449 20.2732C15.2456 19.7994 14.7005 19.1258 14.3786 18.3378C14.0568 17.5498 13.9726 16.6827 14.1366 15.8462C14.3007 15.0096 14.7057 14.2412 15.3005 13.6381C15.8952 13.035 16.6529 12.6243 17.4779 12.4579C18.3028 12.2915 19.1578 12.3769 19.9349 12.7033C20.7119 13.0297 21.3761 13.5824 21.8434 14.2916C22.3106 15.0008 22.5601 15.8346 22.5601 16.6875C22.5588 17.8309 22.1104 18.927 21.3132 19.7355C20.5159 20.544 19.435 20.9988 18.3075 21V21ZM18.3075 13.875C17.759 13.875 17.2228 14.04 16.7667 14.349C16.3106 14.658 15.9551 15.0973 15.7452 15.6112C15.5353 16.1251 15.4804 16.6906 15.5874 17.2362C15.6944 17.7818 15.9585 18.2829 16.3464 18.6762C16.7343 19.0696 17.2284 19.3374 17.7664 19.446C18.3044 19.5545 18.8621 19.4988 19.3688 19.2859C19.8756 19.073 20.3088 18.7126 20.6135 18.25C20.9182 17.7875 21.0809 17.2438 21.0809 16.6875C21.08 15.9418 20.7876 15.227 20.2676 14.6997C19.7477 14.1725 19.0428 13.8759 18.3075 13.875V13.875Z"/>
  <path d="M6.10449 21C5.26342 21 4.44123 20.7471 3.7419 20.2732C3.04257 19.7994 2.4975 19.1258 2.17564 18.3378C1.85377 17.5498 1.76956 16.6827 1.93364 15.8462C2.09773 15.0096 2.50275 14.2412 3.09748 13.6381C3.69221 13.035 4.44994 12.6243 5.27486 12.4579C6.09978 12.2915 6.95483 12.3769 7.73188 12.7033C8.50893 13.0297 9.17309 13.5824 9.64037 14.2916C10.1076 15.0008 10.3571 15.8346 10.3571 16.6875C10.3558 17.8309 9.9074 18.927 9.11016 19.7355C8.31291 20.544 7.23197 20.9988 6.10449 21V21ZM6.10449 13.875C5.55596 13.875 5.01975 14.04 4.56367 14.349C4.10758 14.658 3.75211 15.0973 3.5422 15.6112C3.33228 16.1251 3.27736 16.6906 3.38437 17.2362C3.49139 17.7818 3.75553 18.2829 4.1434 18.6762C4.53126 19.0696 5.02544 19.3374 5.56343 19.446C6.10142 19.5545 6.65906 19.4988 7.16583 19.2859C7.67261 19.073 8.10575 18.7126 8.4105 18.25C8.71525 17.7875 8.8779 17.2438 8.8779 16.6875C8.87705 15.9418 8.58458 15.227 8.06465 14.6997C7.54472 14.1725 6.83979 13.8759 6.10449 13.875V13.875Z"/>
  <path d="M15.1644 6.00005C15.3592 6.00073 15.5522 5.96225 15.7323 5.88681C15.9123 5.81138 16.0759 5.7005 16.2134 5.56058C16.351 5.42065 16.4598 5.25447 16.5336 5.07163C16.6074 4.88879 16.6448 4.69293 16.6435 4.49536C16.6457 4.29878 16.6092 4.10374 16.5361 3.92164C16.4631 3.73954 16.3549 3.57403 16.2181 3.4348C16.0812 3.29558 15.9183 3.18542 15.739 3.11077C15.5597 3.03612 15.3675 2.99848 15.1736 3.00005C14.9794 2.99943 14.7869 3.03762 14.6072 3.11243C14.4275 3.18725 14.2641 3.29722 14.1263 3.43607C13.9885 3.57492 13.8791 3.73994 13.8042 3.92169C13.7293 4.10344 13.6904 4.29838 13.6898 4.49536C13.6892 4.69234 13.7269 4.88752 13.8007 5.06974C13.8744 5.25197 13.9829 5.41767 14.1198 5.55739C14.2567 5.69712 14.4194 5.80812 14.5987 5.88407C14.7779 5.96002 14.9701 5.99943 15.1644 6.00005V6.00005Z"/>
  <path d="M17.3622 9.00003H15.3395C15.3063 9.00004 15.2737 8.99099 15.2452 8.97384C15.2167 8.95668 15.1932 8.93205 15.1773 8.90253L13.7101 6.17581C13.6068 5.97318 13.4578 5.79807 13.2753 5.66467C13.0928 5.53127 12.8818 5.44333 12.6596 5.40795C12.4373 5.37258 12.21 5.39077 11.996 5.46106C11.7819 5.53135 11.5872 5.65175 11.4276 5.81253L8.19843 9.11253C7.92715 9.39333 7.77316 9.76945 7.76855 10.1625C7.76855 10.9782 8.35097 11.2688 8.62369 11.4328C9.94106 12.2025 10.8688 12.7655 11.3777 13.0782C11.4047 13.0949 11.4271 13.1183 11.4427 13.1463C11.4582 13.1743 11.4664 13.2059 11.4664 13.238V16.478C11.4664 16.8816 11.7724 17.228 12.1704 17.2482C12.2703 17.253 12.3702 17.2373 12.464 17.2019C12.5577 17.1666 12.6434 17.1123 12.7159 17.0423C12.7883 16.9724 12.8461 16.8883 12.8855 16.7951C12.925 16.7018 12.9455 16.6015 12.9456 16.5V12.4688C12.9457 12.3497 12.9178 12.2324 12.8642 12.1264C12.8107 12.0204 12.7331 11.9289 12.6377 11.8594L10.9275 10.6121C10.906 10.5965 10.8881 10.5764 10.8749 10.5532C10.8617 10.53 10.8536 10.5043 10.851 10.4776C10.8485 10.451 10.8516 10.4241 10.8602 10.3988C10.8687 10.3734 10.8825 10.3503 10.9007 10.3308L12.842 8.23128C12.862 8.20968 12.8866 8.19316 12.914 8.18307C12.9414 8.17297 12.9708 8.1696 12.9997 8.17321C13.0287 8.17682 13.0563 8.18731 13.0805 8.20384C13.1047 8.22037 13.1247 8.24246 13.1388 8.26831L14.1474 10.1143C14.2115 10.2313 14.3053 10.3288 14.4191 10.3966C14.5329 10.4644 14.6625 10.5001 14.7945 10.5H17.383C17.4832 10.5002 17.5824 10.4796 17.6745 10.4397C17.7667 10.3998 17.8498 10.3413 17.919 10.2678C17.9882 10.1942 18.0419 10.1073 18.0769 10.012C18.1119 9.91685 18.1274 9.81543 18.1226 9.71394C18.1032 9.31035 17.7602 9.00003 17.3622 9.00003Z"/>
</symbol><symbol id="bus" viewBox="0 0 18 21">
  <g clip-path="url(#clip0)">
    <path d="M4.34046 13.9485C4.34046 13.5699 4.20185 13.2467 3.92462 12.9788C3.64739 12.711 3.31288 12.5771 2.92106 12.5771C2.52925 12.5771 2.19473 12.711 1.91751 12.9788C1.64028 13.2467 1.50167 13.5699 1.50167 13.9485C1.50167 14.3271 1.64028 14.6503 1.91751 14.9181C2.19473 15.186 2.52925 15.3199 2.92106 15.3199C3.31288 15.3199 3.64739 15.186 3.92462 14.9181C4.20185 14.6503 4.34046 14.3271 4.34046 13.9485ZM15.6956 13.9485C15.6956 13.5699 15.557 13.2467 15.2798 12.9788C15.0025 12.711 14.668 12.5771 14.2762 12.5771C13.8844 12.5771 13.5499 12.711 13.2727 12.9788C12.9954 13.2467 12.8568 13.5699 12.8568 13.9485C12.8568 14.3271 12.9954 14.6503 13.2727 14.9181C13.5499 15.186 13.8844 15.3199 14.2762 15.3199C14.668 15.3199 15.0025 15.186 15.2798 14.9181C15.557 14.6503 15.6956 14.3271 15.6956 13.9485ZM15.1855 9.70563L14.3871 5.59135C14.3501 5.42706 14.267 5.29313 14.1376 5.18956C14.0082 5.08599 13.8585 5.0342 13.6885 5.0342H3.50878C3.33875 5.0342 3.18905 5.08599 3.05968 5.18956C2.9303 5.29313 2.84714 5.42706 2.81017 5.59135L2.01176 9.70563C1.9748 9.91992 2.02655 10.1092 2.16701 10.2735C2.30747 10.4378 2.48859 10.5199 2.71037 10.5199H14.4869C14.7087 10.5199 14.8898 10.4378 15.0303 10.2735C15.1707 10.1092 15.2225 9.91992 15.1855 9.70563ZM12.6794 3.14849C12.6794 3.00563 12.6276 2.88421 12.5242 2.78421C12.4207 2.68421 12.295 2.63421 12.1471 2.63421H5.05015C4.9023 2.63421 4.77663 2.68421 4.67313 2.78421C4.56963 2.88421 4.51788 3.00563 4.51788 3.14849C4.51788 3.29135 4.56963 3.41278 4.67313 3.51278C4.77663 3.61278 4.9023 3.66278 5.05015 3.66278H12.1471C12.295 3.66278 12.4207 3.61278 12.5242 3.51278C12.6276 3.41278 12.6794 3.29135 12.6794 3.14849ZM17.115 10.9163V17.3771H15.6956V18.7485C15.6956 19.1271 15.557 19.4503 15.2798 19.7181C15.0025 19.986 14.668 20.1199 14.2762 20.1199C13.8844 20.1199 13.5499 19.986 13.2727 19.7181C12.9954 19.4503 12.8568 19.1271 12.8568 18.7485V17.3771H4.34046V18.7485C4.34046 19.1271 4.20185 19.4503 3.92462 19.7181C3.64739 19.986 3.31288 20.1199 2.92106 20.1199C2.52925 20.1199 2.19473 19.986 1.91751 19.7181C1.64028 19.4503 1.50167 19.1271 1.50167 18.7485V17.3771H0.0822754V10.9163C0.0822754 10.1163 0.174684 9.31992 0.359501 8.52706L1.50167 3.66278C1.5682 3.10563 1.9286 2.61635 2.58285 2.19492C3.2371 1.77349 4.08726 1.45564 5.13332 1.24135C6.17939 1.02706 7.33449 0.919922 8.59864 0.919922C9.86279 0.919922 11.0179 1.02706 12.064 1.24135C13.11 1.45564 13.9602 1.77349 14.6144 2.19492C15.2687 2.61635 15.6291 3.10563 15.6956 3.66278L16.86 8.52706C17.03 9.25563 17.115 10.0521 17.115 10.9163Z"/>
  </g>
  
</symbol><symbol id="call" viewBox="0 0 50 50">
  <path d="M24.9741 23.4239C24.9741 23.6129 25.1277 23.7614 25.3155 23.7614C25.7047 23.7614 26.0187 24.0753 26.0187 24.4566C26.0187 24.6423 26.1724 24.7941 26.3601 24.7941C26.5479 24.7941 26.7015 24.6423 26.7015 24.4566C26.7015 23.7006 26.0802 23.0864 25.3155 23.0864C25.1277 23.0864 24.9741 23.2383 24.9741 23.4239ZM30.5318 24.7941C30.723 24.7941 30.8732 24.6423 30.8732 24.4566C30.8732 21.4259 28.3811 18.9621 25.3155 18.9621C25.1277 18.9621 24.9741 19.114 24.9741 19.2996C24.9741 19.4853 25.1277 19.6371 25.3155 19.6371C28.0056 19.6371 30.1904 21.8005 30.1904 24.4566C30.1904 24.6423 30.344 24.7941 30.5318 24.7941Z"/>
  <path d="M28.1047 24.4566C28.1047 24.6423 28.2583 24.7941 28.446 24.7941C28.6338 24.7941 28.7874 24.6423 28.7874 24.4566C28.7874 22.5633 27.2307 21.0243 25.3156 21.0243C25.1278 21.0243 24.9742 21.1761 24.9742 21.3618C24.9742 21.5508 25.1278 21.6993 25.3156 21.6993C26.8552 21.6993 28.1047 22.9379 28.1047 24.4566ZM25.3156 16.9C25.1278 16.9 24.9742 17.0519 24.9742 17.2375C24.9742 17.4231 25.1278 17.575 25.3156 17.575C29.1561 17.575 32.2797 20.6631 32.2797 24.4566C32.2797 24.6423 32.43 24.7941 32.6211 24.7941C32.8089 24.7941 32.9625 24.6423 32.9625 24.4566C32.9625 20.2885 29.5316 16.9 25.3156 16.9ZM28.6509 28.0139L28.2037 28.2535C27.4492 28.6619 26.8621 29.7813 25.9311 28.9375L23.5001 26.5L21.4 24.4566C20.3449 23.1235 21.5263 22.8063 21.9394 22.057L22.1817 21.6183C22.4548 21.1188 22.5538 20.5585 22.4719 19.9983C22.3934 19.438 22.1374 18.9284 21.7277 18.5234C21.2293 18.0306 20.567 17.7606 19.8604 17.7606C19.1537 17.7606 18.488 18.0306 17.9896 18.5234L17.8155 18.6989C16.8938 19.6101 16.788 21.1795 17.5151 23.1235C18.2012 24.9798 19.5839 26.9913 21.4 28.7868C24.1686 31.5239 27.2512 33.1 29.4634 33.1C30.3373 33.1 31.0781 32.8536 31.6038 32.3339L31.7813 32.1584C32.2763 31.669 32.5528 31.0143 32.5563 30.3089C32.5528 29.6204 32.2695 28.9454 31.7813 28.4628C30.9586 27.6494 29.6716 27.4671 28.6509 28.0139Z"/>
</symbol><symbol id="circle" viewBox="0 0 45 45">
  <circle cx="22.5" cy="22.5" r="22.5"/>
</symbol><symbol id="facebook" viewBox="0 0 11 21">
  <path d="M7.48786 20.8125H2.12929V11.1375H0V6.3525H2.06643C1.90929 4.185 2.30214 2.6025 3.26071 1.5225C3.71777 1.04316 4.27461 0.66015 4.89562 0.397985C5.51662 0.13582 6.18812 0.000268301 6.86714 0L10.6229 0V4.6125H7.66857C7.49452 5.1766 7.42799 5.76595 7.47214 6.3525H10.615V11.1375H7.47214L7.48786 20.8125ZM3.31571 19.6875H6.28571V10.0125H9.42857V7.5H6.28571V6.93C6.28571 5.43 6.28571 4.0875 7.07143 3.585L7.22071 3.4875H9.42857V1.125H6.89857C6.38444 1.11866 5.87465 1.21553 5.40225 1.40933C4.92986 1.60314 4.50541 1.88955 4.15643 2.25C3.37071 3.1725 3.04857 4.7175 3.29214 6.855L3.37071 7.4775H1.17857V10.0125H3.31571V19.6875Z"/>
</symbol><symbol id="instagram" viewBox="0 0 18 18">
  <g>
    <path d="M12.9601 1.80061C13.8188 1.80251 14.6418 2.14448 15.249 2.75169C15.8562 3.35889 16.1982 4.18189 16.2001 5.04061V12.9606C16.1982 13.8193 15.8562 14.6423 15.249 15.2495C14.6418 15.8567 13.8188 16.1987 12.9601 16.2006H5.04009C4.18262 16.1968 3.36147 15.854 2.75581 15.247C2.15016 14.64 1.80919 13.8181 1.80729 12.9606V5.04061C1.80919 4.18314 2.15016 3.36122 2.75581 2.75422C3.36147 2.14722 4.18262 1.80441 5.04009 1.80061H12.9601ZM12.9601 0.720612H5.04009C3.89436 0.720612 2.79555 1.17575 1.98539 1.98591C1.17523 2.79607 0.720093 3.89488 0.720093 5.04061L0.720093 12.9606C0.720093 14.1063 1.17523 15.2052 1.98539 16.0153C2.79555 16.8255 3.89436 17.2806 5.04009 17.2806H12.9601C14.1058 17.2806 15.2046 16.8255 16.0148 16.0153C16.8249 15.2052 17.2801 14.1063 17.2801 12.9606V5.04061C17.2801 3.89488 16.8249 2.79607 16.0148 1.98591C15.2046 1.17575 14.1058 0.720612 12.9601 0.720612V0.720612Z"/>
    <path d="M9.00703 5.81737C9.63787 5.81737 10.2545 6.00444 10.7791 6.35492C11.3036 6.7054 11.7124 7.20354 11.9538 7.78637C12.1953 8.36919 12.2584 9.01051 12.1353 9.62923C12.0123 10.248 11.7085 10.8163 11.2624 11.2624C10.8163 11.7084 10.248 12.0122 9.62929 12.1353C9.01057 12.2584 8.36924 12.1952 7.78642 11.9538C7.2036 11.7124 6.70545 11.3035 6.35497 10.779C6.00449 10.2545 5.81743 9.63782 5.81743 9.00697C5.81648 8.58784 5.89833 8.17265 6.05829 7.78524C6.21824 7.39784 6.45315 7.04584 6.74952 6.74947C7.04589 6.4531 7.39789 6.21819 7.7853 6.05823C8.17271 5.89828 8.5879 5.81642 9.00703 5.81737ZM9.00703 4.73737C8.16228 4.73595 7.33609 4.98514 6.63301 5.45343C5.92993 5.92171 5.38156 6.58803 5.0573 7.36807C4.73304 8.14811 4.64746 9.00681 4.81139 9.83551C4.97532 10.6642 5.38139 11.4256 5.97822 12.0235C6.57504 12.6213 7.3358 13.0287 8.16422 13.194C8.99264 13.3593 9.85148 13.2752 10.6321 12.9523C11.4127 12.6293 12.0799 12.0821 12.5494 11.3798C13.0188 10.6775 13.2694 9.85173 13.2694 9.00697C13.2704 8.44662 13.1608 7.89158 12.947 7.37361C12.7333 6.85564 12.4194 6.38491 12.0236 5.98835C11.6277 5.59178 11.1575 5.27717 10.6398 5.06252C10.1222 4.84786 9.56738 4.73737 9.00703 4.73737Z"/>
    <path d="M13.4282 5.55936C13.961 5.55936 14.393 5.12741 14.393 4.59456C14.393 4.06172 13.961 3.62976 13.4282 3.62976C12.8953 3.62976 12.4634 4.06172 12.4634 4.59456C12.4634 5.12741 12.8953 5.55936 13.4282 5.55936Z"/>
  </g>
</symbol><symbol id="mail-2" viewBox="0 0 40 40">
  <path d="M12.0166 15.3253L18.7666 19.5557C18.9934 19.6975 19.2868 19.7647 19.582 19.7647C19.8772 19.7647 20.1706 19.6975 20.3974 19.5557L27.1474 15.3253C27.5875 15.0491 28.0033 13.975 27.196 13.975H11.9689C11.1616 13.975 11.5774 15.0491 12.0166 15.3253ZM27.3517 17.6384L20.3974 21.8668C20.0914 22.0537 19.8772 22.0757 19.582 22.0757C19.2868 22.0757 19.0726 22.0537 18.7666 21.8668C18.4606 21.6799 12.3469 17.9408 11.8474 17.6374C11.4964 17.4232 11.5 17.6741 11.5 17.8673V25.525C11.5 25.966 12.0094 26.575 12.4 26.575H26.8C27.1906 26.575 27.7 25.966 27.7 25.525V17.8684C27.7 17.6752 27.7036 17.4242 27.3517 17.6384Z"/>
</symbol><symbol id="mail" viewBox="0 0 45 45">
  <path fill-rule="evenodd" clip-rule="evenodd" d="M30.1393 27.4663L25.8089 23.5L30.1393 19.5337L29.5488 18.9026L23.25 24.6719L16.9512 18.9026L16.3607 19.5337L20.6911 23.5L16.3607 27.4663L16.9512 28.0974L21.3308 24.0859L23.25 25.8438L25.1691 24.0859L29.5488 28.0974L30.1393 27.4663ZM15.5759 17.25C14.7669 17.25 14.1111 17.9488 14.1111 18.8079V28.1921C14.1111 29.0525 14.7616 29.75 15.5759 29.75H30.924C31.733 29.75 32.3889 29.0512 32.3889 28.1921V18.8079C32.3889 17.9475 31.7383 17.25 30.924 17.25H15.5759Z"/>
</symbol><symbol id="plane" viewBox="0 0 18 17">
  <g clip-path="url(#clip0)">
    <path d="M13.9146 0.927695C13.3249 1.05994 12.7325 1.19281 12.5121 1.55688L10.8065 4.7625L1.64828 6.81634L1.27723 7.84059L8.28531 8.46568L7.09628 11.2408L4.43851 11.8368L3.77123 12.9275L5.68861 13.1239L5.90725 14.0159C6.00521 14.3321 6.34902 14.5432 6.64248 14.4774L7.5284 14.2787L8.55537 15.9305L9.22266 14.8398L8.56673 12.1638L10.491 9.85016L14.1627 15.9287L14.9031 15.1363L12.6435 5.91794L14.7185 2.94416C14.9416 2.57946 14.7961 1.98572 14.6499 1.38919C14.5774 1.09371 14.2081 0.861883 13.9146 0.927695Z"/>
  </g>
  
</symbol><symbol id="run" viewBox="0 0 21 24">
  <path d="M14.9758 5.75992C15.9264 5.75992 16.697 4.90031 16.697 3.83992C16.697 2.77954 15.9264 1.91992 14.9758 1.91992C14.0252 1.91992 13.2546 2.77954 13.2546 3.83992C13.2546 4.90031 14.0252 5.75992 14.9758 5.75992Z"/>
  <path d="M13.9233 10.5302C14.1209 10.8586 14.4043 11.1113 14.735 11.2538C15.0657 11.3964 15.4277 11.4219 15.7719 11.327L18.6256 10.5312L18.21 8.66881L15.3562 9.46465L14.1695 7.48033C13.9159 7.05655 13.5224 6.76184 13.0748 6.66049L9.76493 5.92129C9.39465 5.83839 9.01021 5.89379 8.67097 6.07893C8.33173 6.26406 8.05657 6.56863 7.88797 6.94561L6.4611 10.129L8.00071 10.9882L9.42758 7.80385L11.1204 8.18209L6.74338 16.32H2.92749V18.24H6.74338C7.34407 18.24 7.90949 17.8829 8.2193 17.3078L9.86993 14.2397L14.3184 15.2323L15.8812 20.4634L17.5129 19.8557L15.9509 14.6256C15.8545 14.3045 15.684 14.0174 15.4564 13.7933C15.2289 13.5691 14.9524 13.4158 14.6548 13.3488L12.0395 12.7661L13.5645 9.93025L13.9233 10.5302Z"/>
</symbol><symbol id="telephone" viewBox="0 0 45 45">
  <path fill-rule="evenodd" clip-rule="evenodd" d="M22.4999 15.0862C19.7035 15.0862 16.9003 15.5588 15.8832 16.5009C15.0393 17.2825 14.758 18.6633 14.6632 19.5375C14.6632 19.5375 14.6501 19.6239 14.6501 19.6611C14.6501 20.0039 14.9444 20.2789 15.3043 20.2789C15.3468 20.2789 16.92 20.1584 17.8685 20.0843C17.8913 20.0811 17.9143 20.0781 17.9372 20.0719C18.2904 20.0627 18.575 19.7908 18.575 19.4541L18.5782 18.237C18.5782 17.8601 18.9021 17.5574 19.3012 17.5574H25.6987C26.0978 17.5574 26.4218 17.8601 26.4218 18.237L26.425 19.4541C26.425 19.7908 26.7095 20.0627 27.0628 20.0719C27.0854 20.0781 27.1085 20.0811 27.1315 20.0843C28.0801 20.1583 29.6533 20.2789 29.6957 20.2789C30.0553 20.2789 30.3499 20.0039 30.3499 19.6611C30.3499 19.6239 30.3368 19.5375 30.3368 19.5375C30.2419 18.6633 29.9609 17.2826 29.117 16.5009C28.0996 15.5588 25.2964 15.0862 22.4999 15.0862ZM22.4999 23.1177C21.7771 23.1177 21.1916 23.6706 21.1916 24.3533C21.1916 25.036 21.7771 25.5889 22.4999 25.5889C23.2228 25.5889 23.8082 25.036 23.8082 24.3533C23.8082 23.6706 23.2228 23.1177 22.4999 23.1177ZM21.5187 20.3375V19.5653C21.5187 19.139 21.1524 18.793 20.7011 18.793C20.2498 18.793 19.8834 19.1391 19.8834 19.5653V20.3375L15.4709 24.7889C15.1669 25.07 14.9771 25.4622 14.9771 25.8948V27.1335C14.9771 27.8162 15.5626 28.3691 16.2854 28.3691H16.6125V29.1414C16.6125 29.5677 16.979 29.9136 17.4302 29.9136C17.8815 29.9136 18.2479 29.5677 18.2479 29.1414V28.3691H26.752V29.1414C26.752 29.5677 27.1182 29.9136 27.5697 29.9136C28.021 29.9136 28.3873 29.5677 28.3873 29.1414V28.3691H28.7144C29.4373 28.3691 30.0227 27.8162 30.0227 27.1335V25.8948C30.0227 25.4622 29.833 25.07 29.5289 24.7889L25.1166 20.3375V19.5653C25.1166 19.139 24.7502 18.793 24.2989 18.793C23.8476 18.793 23.4812 19.1391 23.4812 19.5653V20.3375H21.5187ZM22.4999 21.8821C23.9456 21.8821 25.1166 22.988 25.1166 24.3533C25.1166 25.7187 23.9457 26.8247 22.4999 26.8247C21.0543 26.8247 19.8834 25.7187 19.8834 24.3533C19.8834 22.988 21.0543 21.8821 22.4999 21.8821Z"/>
</symbol><symbol id="vkontakte" viewBox="0 0 23 12">
  <path d="M17.7664 11.8331C17.219 11.8207 16.6854 11.6573 16.2232 11.3606C15.7407 11.031 15.2975 10.6459 14.9026 10.2132C14.5761 9.88315 14.0345 9.32815 13.8268 9.32815C13.619 9.32815 13.4706 10.0181 13.478 10.5056C13.4812 10.8422 13.3564 11.167 13.1293 11.4131C12.8712 11.6263 12.5561 11.7569 12.2242 11.7881H10.7997C8.75222 11.7426 6.79178 10.9425 5.28708 9.53815C2.55676 7.01065 0.21224 2.18065 0.115789 1.97065C0.0237889 1.79521 -0.0147389 1.59616 0.00506792 1.3986C0.0248747 1.20105 0.102128 1.01386 0.227079 0.860649C0.509857 0.622256 0.867951 0.494496 1.23611 0.500649H4.26321H4.35224C4.6027 0.537588 4.84277 0.626997 5.05708 0.763149C5.25875 0.899848 5.42022 1.08899 5.5245 1.31065C5.8444 2.00295 6.2113 2.67204 6.62256 3.31315C7.5945 4.81315 8.02482 5.15815 8.18063 5.23315C8.35396 4.52985 8.40169 3.80091 8.3216 3.08065C8.3476 2.7526 8.29412 2.4231 8.16579 2.12065C8.00289 1.98893 7.80288 1.91278 7.5945 1.90315L7.05289 1.38565C6.94901 0.890649 7.49063 0.463149 7.86902 0.298149C8.62414 0.0589723 9.41638 -0.0376377 10.2061 0.013149H10.7329C11.2686 -0.000953053 11.8041 0.0494006 12.328 0.163149C13.5893 0.433149 13.5448 1.46065 13.4929 2.64565C13.4929 2.99065 13.4558 3.39565 13.4558 3.86065C13.4558 3.97315 13.4558 4.09315 13.4558 4.22065C13.4266 4.54717 13.4492 4.87631 13.5226 5.19565C14.1402 4.67331 14.6604 4.04337 15.0584 3.33565C15.4879 2.66645 15.865 1.96431 16.1861 1.23565C16.2839 1.00519 16.4516 0.812043 16.6649 0.684009C16.8782 0.555974 17.1262 0.499653 17.3732 0.523149H20.5487C20.6425 0.514104 20.7369 0.514104 20.8306 0.523149C21.5726 0.523149 22.0103 0.740649 22.1884 1.16065C22.3664 1.58065 22.3145 2.40565 20.4374 4.61815L19.6955 5.46565C19.336 5.81847 19.0264 6.21976 18.7755 6.65815C19.0565 6.98108 19.3754 7.2682 19.7251 7.51315C20.5778 8.16264 21.3283 8.93894 21.951 9.81565C22.097 9.98613 22.1925 10.1948 22.2266 10.4176C22.2608 10.6405 22.2321 10.8685 22.1439 11.0756C21.9884 11.3051 21.7803 11.4931 21.5375 11.6237C21.2946 11.7542 21.0241 11.8235 20.749 11.8256L17.9371 11.8631L17.7664 11.8331ZM13.8268 8.20315C14.4945 8.20315 15.0732 8.79565 15.689 9.41815C16.0217 9.78534 16.3951 10.1125 16.8019 10.3931C17.1096 10.6 17.4711 10.7096 17.8406 10.7081H17.9148L20.7342 10.6706C20.8732 10.6626 21.0094 10.6269 21.1348 10.5656L21.0606 10.4456C20.499 9.67196 19.8292 8.98479 19.0722 8.40565C18.1893 7.65565 17.7368 7.30315 17.6848 6.72565C17.6329 6.14815 18.0484 5.64565 18.8793 4.69315L19.6213 3.86065C20.2477 3.21479 20.7619 2.46681 21.1422 1.64815C20.9767 1.63823 20.8107 1.63823 20.6451 1.64815H17.4029C17.3443 1.6349 17.2835 1.6349 17.2248 1.64815C16.8814 2.44423 16.4719 3.20947 16.0006 3.93565C14.5984 6.05065 13.938 6.33565 13.4706 6.33565C13.3257 6.33565 13.183 6.29959 13.0551 6.23065C12.3132 5.80315 12.3132 4.85065 12.3577 4.16065C12.3577 4.04815 12.3577 3.93565 12.3577 3.83815C12.3577 3.35065 12.3577 2.93065 12.3948 2.57065C12.4542 1.31065 12.3948 1.30315 12.1129 1.23565C11.6586 1.14491 11.1958 1.10467 10.7329 1.11565H10.221C9.74988 1.10581 9.27872 1.13088 8.81127 1.19065C8.88206 1.24338 8.94459 1.30659 8.99676 1.37815C9.30278 1.8659 9.4554 2.43595 9.4345 3.01315C9.53095 4.25065 9.47902 5.86315 8.69256 6.25315C8.5533 6.31903 8.40115 6.35235 8.2474 6.35065C7.5574 6.35065 6.87482 5.69065 5.70998 3.90565C5.26298 3.22218 4.86383 2.50794 4.51547 1.76815L4.45611 1.69315C4.38118 1.65454 4.30126 1.62677 4.21869 1.61065H1.25095H1.19901C1.63676 2.52565 3.71418 6.57565 6.03643 8.69815C7.34044 9.90918 9.02993 10.6088 10.7997 10.6706H12.1722C12.2422 10.6555 12.3097 10.6303 12.3726 10.5956C12.3726 10.5956 12.3726 10.5956 12.3726 10.5281C12.3726 10.3256 12.3726 8.57815 13.5448 8.27815C13.6356 8.24202 13.7302 8.21685 13.8268 8.20315Z"/>
</symbol></svg>